<svg width="112" height="114" viewBox="0 0 112 114" fill="none" xmlns="http://www.w3.org/2000/svg">
<path d="M111.002 57.5C111.002 87.3234 85.3234 114 55.5 114C25.6766 114 0.00195312 87.3234 0.00195312 57.5C0.00195312 27.6766 25.1786 0.5 55.002 0.5C84.8253 0.5 111.002 27.6766 111.002 57.5Z" fill="white"/>
<path d="M32.8129 74.264C31.8889 74.264 31.0749 74.1173 30.3709 73.824C29.6815 73.5307 29.0949 73.12 28.6109 72.592C28.1415 72.064 27.7895 71.4407 27.5549 70.722C27.3202 69.9887 27.2029 69.182 27.2029 68.302C27.2029 67.422 27.3275 66.6153 27.5769 65.882C27.8409 65.1487 28.2075 64.518 28.6769 63.99C29.1462 63.4473 29.7182 63.0293 30.3929 62.736C31.0822 62.428 31.8449 62.274 32.6809 62.274C33.1942 62.274 33.7075 62.318 34.2209 62.406C34.7342 62.494 35.2255 62.6333 35.6949 62.824L35.2329 64.562C34.9249 64.4153 34.5655 64.298 34.1549 64.21C33.7589 64.122 33.3335 64.078 32.8789 64.078C31.7349 64.078 30.8549 64.4373 30.2389 65.156C29.6375 65.8747 29.3369 66.9233 29.3369 68.302C29.3369 68.918 29.4029 69.4827 29.5349 69.996C29.6815 70.5093 29.9015 70.9493 30.1949 71.316C30.5029 71.6827 30.8915 71.9687 31.3609 72.174C31.8302 72.3647 32.4022 72.46 33.0769 72.46C33.6195 72.46 34.1109 72.4087 34.5509 72.306C34.9909 72.2033 35.3355 72.0933 35.5849 71.976L35.8709 73.692C35.7535 73.7653 35.5849 73.8387 35.3649 73.912C35.1449 73.9707 34.8955 74.022 34.6169 74.066C34.3382 74.1247 34.0375 74.1687 33.7149 74.198C33.4069 74.242 33.1062 74.264 32.8129 74.264ZM41.6094 72.526C42.0934 72.526 42.5188 72.5187 42.8854 72.504C43.2668 72.4747 43.5821 72.4307 43.8314 72.372V68.962C43.6848 68.8887 43.4428 68.83 43.1054 68.786C42.7828 68.7273 42.3868 68.698 41.9174 68.698C41.6094 68.698 41.2794 68.72 40.9274 68.764C40.5901 68.808 40.2748 68.9033 39.9814 69.05C39.7028 69.182 39.4681 69.3727 39.2774 69.622C39.0868 69.8567 38.9914 70.172 38.9914 70.568C38.9914 71.3013 39.2261 71.8147 39.6954 72.108C40.1648 72.3867 40.8028 72.526 41.6094 72.526ZM41.4334 62.274C42.2548 62.274 42.9441 62.384 43.5014 62.604C44.0734 62.8093 44.5281 63.11 44.8654 63.506C45.2174 63.8873 45.4668 64.3493 45.6134 64.892C45.7601 65.42 45.8334 66.0067 45.8334 66.652V73.802C45.6574 73.8313 45.4081 73.8753 45.0854 73.934C44.7774 73.978 44.4254 74.022 44.0294 74.066C43.6334 74.11 43.2008 74.1467 42.7314 74.176C42.2768 74.22 41.8221 74.242 41.3674 74.242C40.7221 74.242 40.1281 74.176 39.5854 74.044C39.0428 73.912 38.5734 73.7067 38.1774 73.428C37.7814 73.1347 37.4734 72.7533 37.2534 72.284C37.0334 71.8147 36.9234 71.25 36.9234 70.59C36.9234 69.9593 37.0481 69.4167 37.2974 68.962C37.5614 68.5073 37.9134 68.1407 38.3534 67.862C38.7934 67.5833 39.3068 67.378 39.8934 67.246C40.4801 67.114 41.0961 67.048 41.7414 67.048C41.9468 67.048 42.1594 67.0627 42.3794 67.092C42.5994 67.1067 42.8048 67.136 42.9954 67.18C43.2008 67.2093 43.3768 67.2387 43.5234 67.268C43.6701 67.2973 43.7728 67.3193 43.8314 67.334V66.762C43.8314 66.4247 43.7948 66.0947 43.7214 65.772C43.6481 65.4347 43.5161 65.1413 43.3254 64.892C43.1348 64.628 42.8708 64.4227 42.5334 64.276C42.2108 64.1147 41.7854 64.034 41.2574 64.034C40.5828 64.034 39.9888 64.0853 39.4754 64.188C38.9768 64.276 38.6028 64.3713 38.3534 64.474L38.1114 62.78C38.3754 62.6627 38.8154 62.5527 39.4314 62.45C40.0474 62.3327 40.7148 62.274 41.4334 62.274ZM53.1256 62.318C53.3016 62.318 53.4996 62.3327 53.7196 62.362C53.9542 62.3767 54.1816 62.406 54.4016 62.45C54.6216 62.4793 54.8196 62.516 54.9956 62.56C55.1862 62.5893 55.3256 62.6187 55.4136 62.648L55.0616 64.43C54.9002 64.3713 54.6289 64.3053 54.2476 64.232C53.8809 64.144 53.4042 64.1 52.8176 64.1C52.4362 64.1 52.0549 64.144 51.6736 64.232C51.3069 64.3053 51.0649 64.3567 50.9476 64.386V74H48.9016V63.044C49.3856 62.868 49.9869 62.7067 50.7056 62.56C51.4242 62.3987 52.2309 62.318 53.1256 62.318ZM61.2819 62.318C61.4579 62.318 61.6559 62.3327 61.8759 62.362C62.1106 62.3767 62.3379 62.406 62.5579 62.45C62.7779 62.4793 62.9759 62.516 63.1519 62.56C63.3426 62.5893 63.4819 62.6187 63.5699 62.648L63.2179 64.43C63.0566 64.3713 62.7852 64.3053 62.4039 64.232C62.0372 64.144 61.5606 64.1 60.9739 64.1C60.5926 64.1 60.2112 64.144 59.8299 64.232C59.4632 64.3053 59.2212 64.3567 59.1039 64.386V74H57.0579V63.044C57.5419 62.868 58.1432 62.7067 58.8619 62.56C59.5806 62.3987 60.3872 62.318 61.2819 62.318ZM75.3122 68.28C75.3122 69.1893 75.1802 70.0107 74.9162 70.744C74.6522 71.4773 74.2782 72.108 73.7942 72.636C73.3249 73.164 72.7602 73.5747 72.1002 73.868C71.4402 74.1467 70.7216 74.286 69.9442 74.286C69.1669 74.286 68.4482 74.1467 67.7882 73.868C67.1282 73.5747 66.5562 73.164 66.0722 72.636C65.6029 72.108 65.2362 71.4773 64.9722 70.744C64.7082 70.0107 64.5762 69.1893 64.5762 68.28C64.5762 67.3853 64.7082 66.5713 64.9722 65.838C65.2362 65.09 65.6029 64.452 66.0722 63.924C66.5562 63.396 67.1282 62.9927 67.7882 62.714C68.4482 62.4207 69.1669 62.274 69.9442 62.274C70.7216 62.274 71.4402 62.4207 72.1002 62.714C72.7602 62.9927 73.3249 63.396 73.7942 63.924C74.2782 64.452 74.6522 65.09 74.9162 65.838C75.1802 66.5713 75.3122 67.3853 75.3122 68.28ZM73.1782 68.28C73.1782 66.9893 72.8849 65.97 72.2982 65.222C71.7262 64.4593 70.9416 64.078 69.9442 64.078C68.9469 64.078 68.1549 64.4593 67.5682 65.222C66.9962 65.97 66.7102 66.9893 66.7102 68.28C66.7102 69.5707 66.9962 70.5973 67.5682 71.36C68.1549 72.108 68.9469 72.482 69.9442 72.482C70.9416 72.482 71.7262 72.108 72.2982 71.36C72.8849 70.5973 73.1782 69.5707 73.1782 68.28ZM80.5228 72.526C81.3588 72.526 81.9748 72.416 82.3708 72.196C82.7814 71.976 82.9868 71.624 82.9868 71.14C82.9868 70.6413 82.7888 70.2453 82.3928 69.952C81.9968 69.6587 81.3441 69.3287 80.4348 68.962C79.9948 68.786 79.5694 68.61 79.1588 68.434C78.7628 68.2433 78.4181 68.0233 78.1248 67.774C77.8314 67.5247 77.5968 67.224 77.4208 66.872C77.2448 66.52 77.1568 66.0873 77.1568 65.574C77.1568 64.562 77.5308 63.7627 78.2788 63.176C79.0268 62.5747 80.0461 62.274 81.3368 62.274C81.6594 62.274 81.9821 62.296 82.3048 62.34C82.6274 62.3693 82.9281 62.4133 83.2068 62.472C83.4854 62.516 83.7274 62.5673 83.9328 62.626C84.1528 62.6847 84.3214 62.736 84.4388 62.78L84.0648 64.54C83.8448 64.4227 83.5001 64.3053 83.0308 64.188C82.5614 64.056 81.9968 63.99 81.3368 63.99C80.7648 63.99 80.2661 64.1073 79.8408 64.342C79.4154 64.562 79.2028 64.914 79.2028 65.398C79.2028 65.6473 79.2468 65.8673 79.3348 66.058C79.4374 66.2487 79.5841 66.4247 79.7748 66.586C79.9801 66.7327 80.2294 66.872 80.5228 67.004C80.8161 67.136 81.1681 67.2753 81.5788 67.422C82.1214 67.6273 82.6054 67.8327 83.0308 68.038C83.4561 68.2287 83.8154 68.456 84.1088 68.72C84.4168 68.984 84.6514 69.3067 84.8128 69.688C84.9741 70.0547 85.0548 70.5093 85.0548 71.052C85.0548 72.108 84.6588 72.9073 83.8668 73.45C83.0894 73.9927 81.9748 74.264 80.5228 74.264C79.5108 74.264 78.7188 74.176 78.1468 74C77.5748 73.8387 77.1861 73.714 76.9808 73.626L77.3548 71.866C77.5894 71.954 77.9634 72.086 78.4768 72.262C78.9901 72.438 79.6721 72.526 80.5228 72.526Z" fill="#324256"/>
<path d="M26.8388 46.23C26.8388 44.85 27.0388 43.65 27.4388 42.63C27.8388 41.59 28.3688 40.73 29.0288 40.05C29.6888 39.37 30.4488 38.86 31.3088 38.52C32.1688 38.18 33.0488 38.01 33.9488 38.01C36.0488 38.01 37.6588 38.67 38.7788 39.99C39.8988 41.29 40.4588 43.28 40.4588 45.96C40.4588 46.08 40.4588 46.24 40.4588 46.44C40.4588 46.62 40.4488 46.79 40.4288 46.95H29.7488C29.8688 48.57 30.3388 49.8 31.1588 50.64C31.9788 51.48 33.2588 51.9 34.9988 51.9C35.9788 51.9 36.7988 51.82 37.4588 51.66C38.1388 51.48 38.6488 51.31 38.9888 51.15L39.3788 53.49C39.0388 53.67 38.4388 53.86 37.5788 54.06C36.7388 54.26 35.7788 54.36 34.6988 54.36C33.3388 54.36 32.1588 54.16 31.1588 53.76C30.1788 53.34 29.3688 52.77 28.7288 52.05C28.0888 51.33 27.6088 50.48 27.2888 49.5C26.9888 48.5 26.8388 47.41 26.8388 46.23ZM37.5488 44.7C37.5688 43.44 37.2488 42.41 36.5888 41.61C35.9488 40.79 35.0588 40.38 33.9188 40.38C33.2788 40.38 32.7088 40.51 32.2088 40.77C31.7288 41.01 31.3188 41.33 30.9788 41.73C30.6388 42.13 30.3688 42.59 30.1688 43.11C29.9888 43.63 29.8688 44.16 29.8088 44.7H37.5488ZM49.2966 51.99C49.9566 51.99 50.5366 51.98 51.0366 51.96C51.5566 51.92 51.9866 51.86 52.3266 51.78V47.13C52.1266 47.03 51.7966 46.95 51.3366 46.89C50.8966 46.81 50.3566 46.77 49.7166 46.77C49.2966 46.77 48.8466 46.8 48.3666 46.86C47.9066 46.92 47.4766 47.05 47.0766 47.25C46.6966 47.43 46.3766 47.69 46.1166 48.03C45.8566 48.35 45.7266 48.78 45.7266 49.32C45.7266 50.32 46.0466 51.02 46.6866 51.42C47.3266 51.8 48.1966 51.99 49.2966 51.99ZM49.0566 38.01C50.1766 38.01 51.1166 38.16 51.8766 38.46C52.6566 38.74 53.2766 39.15 53.7366 39.69C54.2166 40.21 54.5566 40.84 54.7566 41.58C54.9566 42.3 55.0566 43.1 55.0566 43.98V53.73C54.8166 53.77 54.4766 53.83 54.0366 53.91C53.6166 53.97 53.1366 54.03 52.5966 54.09C52.0566 54.15 51.4666 54.2 50.8266 54.24C50.2066 54.3 49.5866 54.33 48.9666 54.33C48.0866 54.33 47.2766 54.24 46.5366 54.06C45.7966 53.88 45.1566 53.6 44.6166 53.22C44.0766 52.82 43.6566 52.3 43.3566 51.66C43.0566 51.02 42.9066 50.25 42.9066 49.35C42.9066 48.49 43.0766 47.75 43.4166 47.13C43.7766 46.51 44.2566 46.01 44.8566 45.63C45.4566 45.25 46.1566 44.97 46.9566 44.79C47.7566 44.61 48.5966 44.52 49.4766 44.52C49.7566 44.52 50.0466 44.54 50.3466 44.58C50.6466 44.6 50.9266 44.64 51.1866 44.7C51.4666 44.74 51.7066 44.78 51.9066 44.82C52.1066 44.86 52.2466 44.89 52.3266 44.91V44.13C52.3266 43.67 52.2766 43.22 52.1766 42.78C52.0766 42.32 51.8966 41.92 51.6366 41.58C51.3766 41.22 51.0166 40.94 50.5566 40.74C50.1166 40.52 49.5366 40.41 48.8166 40.41C47.8966 40.41 47.0866 40.48 46.3866 40.62C45.7066 40.74 45.1966 40.87 44.8566 41.01L44.5266 38.7C44.8866 38.54 45.4866 38.39 46.3266 38.25C47.1666 38.09 48.0766 38.01 49.0566 38.01ZM62.8704 51.99C64.0104 51.99 64.8504 51.84 65.3904 51.54C65.9504 51.24 66.2304 50.76 66.2304 50.1C66.2304 49.42 65.9604 48.88 65.4204 48.48C64.8804 48.08 63.9904 47.63 62.7504 47.13C62.1504 46.89 61.5704 46.65 61.0104 46.41C60.4704 46.15 60.0004 45.85 59.6004 45.51C59.2004 45.17 58.8804 44.76 58.6404 44.28C58.4004 43.8 58.2804 43.21 58.2804 42.51C58.2804 41.13 58.7904 40.04 59.8104 39.24C60.8304 38.42 62.2204 38.01 63.9804 38.01C64.4204 38.01 64.8604 38.04 65.3004 38.1C65.7404 38.14 66.1504 38.2 66.5304 38.28C66.9104 38.34 67.2404 38.41 67.5204 38.49C67.8204 38.57 68.0504 38.64 68.2104 38.7L67.7004 41.1C67.4004 40.94 66.9304 40.78 66.2904 40.62C65.6504 40.44 64.8804 40.35 63.9804 40.35C63.2004 40.35 62.5204 40.51 61.9404 40.83C61.3604 41.13 61.0704 41.61 61.0704 42.27C61.0704 42.61 61.1304 42.91 61.2504 43.17C61.3904 43.43 61.5904 43.67 61.8504 43.89C62.1304 44.09 62.4704 44.28 62.8704 44.46C63.2704 44.64 63.7504 44.83 64.3104 45.03C65.0504 45.31 65.7104 45.59 66.2904 45.87C66.8704 46.13 67.3604 46.44 67.7604 46.8C68.1804 47.16 68.5004 47.6 68.7204 48.12C68.9404 48.62 69.0504 49.24 69.0504 49.98C69.0504 51.42 68.5104 52.51 67.4304 53.25C66.3704 53.99 64.8504 54.36 62.8704 54.36C61.4904 54.36 60.4104 54.24 59.6304 54C58.8504 53.78 58.3204 53.61 58.0404 53.49L58.5504 51.09C58.8704 51.21 59.3804 51.39 60.0804 51.63C60.7804 51.87 61.7104 51.99 62.8704 51.99ZM70.3491 56.91C70.5691 57.01 70.8491 57.1 71.1891 57.18C71.5491 57.28 71.8991 57.33 72.2391 57.33C73.3391 57.33 74.1991 57.08 74.8191 56.58C75.4391 56.1 75.9991 55.31 76.4991 54.21C75.2391 51.81 74.0591 49.27 72.9591 46.59C71.8791 43.89 70.9791 41.16 70.2591 38.4H73.2591C73.4791 39.3 73.7391 40.27 74.0391 41.31C74.3591 42.35 74.7091 43.42 75.0891 44.52C75.4691 45.62 75.8791 46.72 76.3191 47.82C76.7591 48.92 77.2191 49.98 77.6991 51C78.4591 48.9 79.1191 46.82 79.6791 44.76C80.2391 42.7 80.7691 40.58 81.2691 38.4H84.1491C83.4291 41.34 82.6291 44.17 81.7491 46.89C80.8691 49.59 79.9191 52.12 78.8991 54.48C78.4991 55.38 78.0791 56.15 77.6391 56.79C77.2191 57.45 76.7491 57.99 76.2291 58.41C75.7091 58.83 75.1191 59.14 74.4591 59.34C73.8191 59.54 73.0891 59.64 72.2691 59.64C72.0491 59.64 71.8191 59.62 71.5791 59.58C71.3391 59.56 71.0991 59.52 70.8591 59.46C70.6391 59.42 70.4291 59.37 70.2291 59.31C70.0491 59.25 69.9191 59.2 69.8391 59.16L70.3491 56.91Z" fill="black"/>
<path fill-rule="evenodd" clip-rule="evenodd" d="M55.5 1.5C25.5673 1.5 1.27068 25.6307 1.00225 55.5H3.00233C3.2707 26.7353 26.6719 3.5 55.5 3.5C84.3281 3.5 107.729 26.7353 107.998 55.5H109.998C109.729 25.6307 85.4327 1.5 55.5 1.5ZM110.998 55.5C110.729 25.0784 85.985 0.5 55.5 0.5C24.8482 0.5 0 25.3482 0 56V56.5H0.5H4V56C4 27.5573 27.0573 4.5 55.5 4.5C83.9427 4.5 107 27.5573 107 56V56.5H107.5H111V56V55.5H110.998Z" fill="#324256"/>
<path fill-rule="evenodd" clip-rule="evenodd" d="M55.5 113C25.5673 113 1.27068 88.8693 1.00225 59H3.00233C3.2707 87.7647 26.6719 111 55.5 111C84.3281 111 107.729 87.7647 107.998 59H109.998C109.729 88.8693 85.4327 113 55.5 113ZM110.998 59C110.729 89.4216 85.985 114 55.5 114C24.8482 114 0 89.1518 0 58.5V58H0.5H4V58.5C4 86.9427 27.0573 110 55.5 110C83.9427 110 107 86.9427 107 58.5V58H107.5H111V58.5V59H110.998Z" fill="#09DAC3"/>
</svg>
